<svg height="41.93" viewBox="0 0 48 41.93" width="48" xmlns="http://www.w3.org/2000/svg"><path d="m41.815 21.672c-3.755-7.926-6.56-6.123-18.139-6.123v3c-5.6 8.27-13.9 6.735-21.447 2.439a1.5 1.5 0 0 0 -2.223 1.438c.905 10.43 6.916 19.5 20.843 19.5 18.374.005 25.205-11.302 20.966-20.254z" fill="#ffbd66"/><circle cx="30.036" cy="10.365" fill="#fddc85" r="10.365"/><path d="m40.39 8.511-.19-.163a1.1 1.1 0 0 0 .19.163z" fill="#c6c6c6"/><path d="m45.974 8.113c-3.623 1.38-5.111.735-5.584.4l.011.009s-4.579 1.846-2.59 6.414a9.624 9.624 0 0 0 2.117.3c7.09.397 10.559-8.843 6.046-7.123z" fill="#c6c6c6"/><circle cx="33.194" cy="6.956" fill="#7a8e9b" r="2.25"/><path d="m33.194 9.956a3 3 0 1 1 3-3 3 3 0 0 1 -3 3zm0-4.5a1.5 1.5 0 1 0 1.5 1.5 1.5 1.5 0 0 0 -1.5-1.5z" fill="#ffbd66"/><path d="m31.3 25.588a9.521 9.521 0 0 1 -7.258.006c-3.728 4.176-7.689 4.063-11.479 3.272 1.368 5.3 8.281 9.03 15.069 7.059 8.339-2.425 6.506-8.625 3.668-10.337z" fill="#fddc85"/></svg>